<svg width="106" height="347" viewBox="0 0 106 347" fill="none" xmlns="http://www.w3.org/2000/svg">
<path d="M84.1885 116.515L75.9097 128.464L72.5209 126.834L80.7997 114.884L71.0349 110.186L60.2932 128.597L80.1239 138.138L93.8862 121.18L84.1885 116.515Z" fill="#BEE89E" fill-opacity="0.5"/>
<path d="M79.4478 95.7666L72.7503 107.246L82.7562 112.06L90.3956 101.034L79.4478 95.7666Z" fill="#BEE89E" fill-opacity="0.5"/>
<path d="M93.7843 102.664L86.145 113.691L96.0839 118.472L104.665 107.899L93.7843 102.664Z" fill="#BEE89E" fill-opacity="0.5"/>
<path d="M103.177 96.5602L105.809 92.7608L94.6081 87.3717L91.9758 91.1712L89.7514 90.101L86.188 95.2442L101.838 102.774L105.401 97.6304L103.177 96.5602Z" fill="#BEE89E" fill-opacity="0.5"/>
<path d="M74.0505 233.445L55.3332 241.861L57.501 245.21L76.2183 236.793L74.0505 233.445Z" fill="#BEE89E" fill-opacity="0.5"/>
<path d="M26.9152 202.148L48.2493 231.118L67.1647 222.613L49.8213 191.849L26.9152 202.148Z" fill="#BEE89E" fill-opacity="0.5"/>
<path d="M50.2066 233.944L53.4751 238.992L58.6091 236.683C57.425 234.37 58.1141 231.842 60.2944 230.862C62.4747 229.881 65.3881 230.789 67.0585 232.884L72.1924 230.576L68.9239 225.528L50.2066 233.944Z" fill="#BEE89E" fill-opacity="0.5"/>
<path d="M62.1525 233.731C61.4974 234.026 61.2259 234.717 61.4185 235.42L64.249 234.147C63.65 233.627 62.8077 233.437 62.1525 233.731Z" fill="#BEE89E" fill-opacity="0.5"/>
<path d="M40.1878 314.401L42.524 311.029L44.8664 312.156L54.0054 301.55L33.7095 291.785L27.2567 303.683L29.5992 304.81L27.263 308.182L19.868 304.624L10.6011 318L38.316 331.334L47.5829 317.959L40.1878 314.401Z" fill="#BEE89E" fill-opacity="0.5"/>
<path d="M36.3595 334.158L8.64457 320.824L0 333.301L27.7149 346.636L36.3595 334.158Z" fill="#BEE89E" fill-opacity="0.5"/>
<path d="M50.869 8.3439C47.8868 9.00981 46.0975 11.5011 46.8718 13.9093L49.0063 20.5478C49.0687 20.7418 49.0759 20.913 49.0448 21.0853C48.9994 21.3412 48.8538 21.5982 48.6373 21.7982C48.4173 21.999 48.1602 22.1399 47.8058 22.2206L45.1934 22.8039L39.5588 5.28019C38.3292 1.45592 33.4943 -0.786487 28.7585 0.270983C24.0228 1.32843 21.181 5.28505 22.4106 9.10923L28.9797 29.5393L27.3954 29.8931C27.1316 29.952 26.8952 29.9615 26.659 29.9369C26.3083 29.9006 25.9603 29.7735 25.6896 29.5829C25.4185 29.3887 25.2292 29.1556 25.1247 28.8399L24.0261 25.4233C23.252 23.0159 20.2074 21.6031 17.2251 22.269C14.2438 22.9347 12.4546 25.4269 13.2287 27.8343L14.3273 31.2509C14.7741 32.6437 15.5613 33.9143 16.5931 34.9908C18.1427 36.6085 20.2308 37.7978 22.5901 38.4459C24.9478 39.0951 27.6088 39.1918 30.1989 38.6121L31.7832 38.2583L35.7135 50.4818L52.8617 46.6528L47.9969 31.523L50.6093 30.9397C52.3097 30.5608 53.8657 29.9115 55.191 29.0702C57.1815 27.8058 58.6596 26.1196 59.4838 24.2223C60.3089 22.3276 60.4695 20.1985 59.8039 18.1369L57.6693 11.4985C56.8949 9.09017 53.8503 7.6782 50.869 8.3439Z" fill="#BEE89E" fill-opacity="0.5"/>
</svg>
