<svg width="95" height="347" viewBox="0 0 95 347" fill="none" xmlns="http://www.w3.org/2000/svg">
<path d="M78.5583 116.711L82.8438 130.038L79.0641 130.882L74.7787 117.555L63.8874 119.986L71.9141 139.335L94.0323 134.396L89.3748 114.295L78.5583 116.711Z" fill="#BEE89E" fill-opacity="0.5"/>
<path d="M57.6009 104.833L62.6057 116.897L73.7659 114.405L69.8115 102.106L57.6009 104.833Z" fill="#BEE89E" fill-opacity="0.5"/>
<path d="M73.5912 101.262L77.5456 113.561L88.6309 111.086L85.727 98.5526L73.5912 101.262Z" fill="#BEE89E" fill-opacity="0.5"/>
<path d="M75.0532 91.4118L73.6906 87.174L61.1975 89.9636L62.5601 94.2013L60.0791 94.7553L61.9236 100.492L79.3787 96.5943L77.5342 90.8578L75.0532 91.4118Z" fill="#BEE89E" fill-opacity="0.5"/>
<path d="M39.106 242.787L20.6873 233.925L18.4047 237.22L36.8234 246.081L39.106 242.787Z" fill="#BEE89E" fill-opacity="0.5"/>
<path d="M46.3437 192.927L27.9444 223.263L46.5582 232.218L68.8844 203.772L46.3437 192.927Z" fill="#BEE89E" fill-opacity="0.5"/>
<path d="M26.0855 226.134L22.6439 231.101L27.6959 233.532C29.438 231.478 32.3817 230.64 34.5273 231.672C36.6728 232.705 37.2741 235.248 36.0106 237.532L41.0626 239.963L44.5042 234.995L26.0855 226.134Z" fill="#BEE89E" fill-opacity="0.5"/>
<path d="M32.5706 234.496C31.926 234.186 31.0773 234.356 30.4605 234.862L33.2459 236.202C33.4627 235.504 33.2154 234.807 32.5706 234.496Z" fill="#BEE89E" fill-opacity="0.5"/>
<path d="M23.877 309.991L22.8011 306.202L25.4332 305.683L23.3519 292.741L0.546021 297.239L5.64579 309.585L8.27795 309.066L9.3539 312.855L1.04431 314.493L5.31238 329.523L36.4547 323.382L32.1866 308.352L23.877 309.991Z" fill="#BEE89E" fill-opacity="0.5"/>
<path d="M37.3558 326.555L6.21349 332.696L10.1949 346.717L41.3373 340.575L37.3558 326.555Z" fill="#BEE89E" fill-opacity="0.5"/>
<path d="M48.5922 17.2858C45.61 16.6199 42.5656 18.0319 41.7913 20.4401L39.6567 27.0786C39.5944 27.2726 39.4979 27.4239 39.3676 27.5601C39.1747 27.7628 38.8944 27.9248 38.5869 28.0078C38.2759 28.09 37.9687 28.1049 37.6134 28.0271L35.001 27.4437L40.6355 9.92C41.8652 6.09573 39.0235 2.13923 34.2877 1.08176C29.552 0.0243144 24.717 2.26679 23.4873 6.09097L16.9183 26.5211L15.3339 26.1673C15.0702 26.1084 14.8597 26.0181 14.6699 25.8984C14.388 25.7209 14.1629 25.4658 14.0428 25.188C13.9246 24.9068 13.9004 24.626 13.9993 24.3091L15.0979 20.8925C15.872 18.485 14.0829 15.993 11.1007 15.3271C8.11936 14.6614 5.07457 16.0742 4.30051 18.4815L3.20195 21.8981C2.75325 23.2905 2.67255 24.7189 2.92029 26.0811C3.29162 28.1277 4.38639 30.0278 6.04077 31.5721C7.69307 33.1166 9.93957 34.3092 12.5304 34.8863L14.1148 35.24L10.1845 47.4635L27.3326 51.2926L32.1974 36.1628L34.8098 36.7461C36.5097 37.1265 38.2469 37.2125 39.8994 37.0362C42.3819 36.7705 44.6736 35.9261 46.5258 34.6264C48.3771 33.3294 49.7937 31.5524 50.4542 29.4897L52.5887 22.8512C53.363 20.4429 51.5735 17.9515 48.5922 17.2858Z" fill="#BEE89E" fill-opacity="0.5"/>
</svg>
