<svg width="28" height="28" viewBox="0 0 28 28" fill="none" xmlns="http://www.w3.org/2000/svg">
<path fill-rule="evenodd" clip-rule="evenodd" d="M13.9956 0.0090332C10.1946 0.0090332 9.71799 0.0251443 8.22522 0.0932555C6.73555 0.1612 5.71817 0.397811 4.82795 0.743811C3.90761 1.10142 3.12711 1.57998 2.349 2.35803C1.57094 3.13614 1.09239 3.91664 0.734777 4.83698C0.388778 5.7272 0.152167 6.74459 0.0842222 8.23425C0.0161111 9.72704 0 10.2036 0 14.0047C0 17.8056 0.0161111 18.2822 0.0842222 19.775C0.152167 21.2646 0.388778 22.2821 0.734777 23.1723C1.09239 24.0926 1.57094 24.8731 2.349 25.6512C3.12711 26.4292 3.90761 26.9078 4.82795 27.2655C5.71817 27.6114 6.73555 27.848 8.22522 27.916C9.71799 27.9841 10.1946 28.0002 13.9956 28.0002C17.7966 28.0002 18.2731 27.9841 19.7659 27.916C21.2556 27.848 22.2729 27.6114 23.1632 27.2655C24.0835 26.9078 24.864 26.4292 25.6422 25.6512C26.4202 24.8731 26.8988 24.0926 27.2565 23.1723C27.6024 22.2821 27.839 21.2646 27.9069 19.775C27.975 18.2822 27.9911 17.8056 27.9911 14.0047C27.9911 10.2036 27.975 9.72704 27.9069 8.23425C27.839 6.74459 27.6024 5.7272 27.2565 4.83698C26.8988 3.91664 26.4202 3.13614 25.6422 2.35803C24.864 1.57998 24.0835 1.10142 23.1632 0.743811C22.2729 0.397811 21.2556 0.1612 19.7659 0.0932555C18.2731 0.0251443 17.7966 0.0090332 13.9956 0.0090332ZM9.33039 14.0047C9.33039 16.5812 11.4191 18.6699 13.9956 18.6699C16.5721 18.6699 18.6608 16.5812 18.6608 14.0047C18.6608 11.4281 16.5721 9.33942 13.9956 9.33942C11.4191 9.33942 9.33039 11.4281 9.33039 14.0047ZM6.80867 14.0047C6.80867 10.0354 10.0263 6.8177 13.9956 6.8177C17.9648 6.8177 21.1825 10.0354 21.1825 14.0047C21.1825 17.9738 17.9648 21.1915 13.9956 21.1915C10.0263 21.1915 6.80867 17.9738 6.80867 14.0047ZM21.4664 8.2132C22.394 8.2132 23.146 7.46131 23.146 6.53375C23.146 5.6062 22.394 4.85426 21.4664 4.85426C20.5389 4.85426 19.787 5.6062 19.787 6.53375C19.787 7.46131 20.5389 8.2132 21.4664 8.2132Z" fill="white"/>
</svg>
