<svg width="28" height="28" viewBox="0 0 28 28" fill="none" xmlns="http://www.w3.org/2000/svg">
<path fill-rule="evenodd" clip-rule="evenodd" d="M22.1405 19.7695C21.8031 20.7246 20.4619 21.5147 19.3923 21.7458C18.6601 21.9012 17.7053 22.0242 14.4881 20.691C10.8747 19.194 5.85709 13.8614 5.85709 10.3127C5.85709 8.50615 6.89869 6.40254 8.72009 6.40254C9.59649 6.40254 9.78969 6.41963 10.0781 7.11143C10.4155 7.92648 11.2387 9.93457 11.3367 10.1404C11.7413 10.9849 10.9251 11.4792 10.3329 12.2145C10.1439 12.4357 9.92969 12.675 10.1691 13.0867C10.4071 13.49 11.2303 14.8317 12.4399 15.9086C14.0023 17.3006 15.2693 17.745 15.7229 17.9341C16.0603 18.0741 16.4635 18.0415 16.7099 17.7782C17.0221 17.4407 17.4099 16.8808 17.8047 16.329C18.0833 15.9341 18.4375 15.8848 18.8085 16.0248C19.0591 16.1116 22.2441 17.5908 22.3785 17.8274C22.4779 17.9997 22.4779 18.8144 22.1405 19.7695ZM13.9939 0H13.9869C6.26868 0 -0.00891113 6.27949 -0.00891113 14C-0.00891113 17.0613 0.978099 19.9015 2.6567 22.2052L0.912296 27.4073L6.2925 25.6881C8.5059 27.1529 11.1477 28 13.9939 28C21.7121 28 27.9911 21.7205 27.9911 14C27.9911 6.27949 21.7121 0 13.9939 0Z" fill="white"/>
</svg>
